HIERARCHY
ROOT Hips
{
	OFFSET 0.00 0.00 0.00
	CHANNELS 6 Xposition Yposition Zposition Yrotation Xrotation Zrotation
	JOINT LHipJoint
	{
		OFFSET	0.0000	0.0000	0.0000
		CHANNELS 3 Yrotation Xrotation Zrotation
		JOINT LeftUpLeg
		{
			OFFSET	1.0138	-0.0809	-0.0827
			CHANNELS 3 Yrotation Xrotation Zrotation
			JOINT LeftLeg
			{
				OFFSET	0.4110	-3.9095	0.3245
				CHANNELS 3 Yrotation Xrotation Zrotation
				JOINT LeftFoot
				{
					OFFSET	0.3810	-4.0555	-0.1470
					CHANNELS 3 Yrotation Xrotation Zrotation
					JOINT LeftToeBase
					{
						OFFSET	0.1396	-0.4462	1.3079
						CHANNELS 3 Yrotation Xrotation Zrotation
						End Site
						{
							OFFSET 0.0161 -0.0248 0.1809
						}
					}
				}
			}
		}
	}
	JOINT LowerBack
	{
		OFFSET	0.0000	0.7977	-0.3873
		CHANNELS 3 Yrotation Xrotation Zrotation
		JOINT Spine
		{
			OFFSET	0.0000	1.4131	0.1715
			CHANNELS 3 Yrotation Xrotation Zrotation
			JOINT Spine1
			{
				OFFSET	0.0000	1.4392	-0.1032
				CHANNELS 3 Yrotation Xrotation Zrotation
				JOINT LeftShoulder
				{
					OFFSET	0.2274	1.0382	0.4032
					CHANNELS 3 Yrotation Xrotation Zrotation
					JOINT LeftArm
					{
						OFFSET	1.4730	-0.2267	-0.0231
						CHANNELS 3 Yrotation Xrotation Zrotation
						JOINT LeftForeArm
						{
							OFFSET	1.6131	-1.8059	0.0081
							CHANNELS 3 Yrotation Xrotation Zrotation
							JOINT LeftHand
							{
								OFFSET	1.2197	-1.2423	1.6317
								CHANNELS 3 Yrotation Xrotation Zrotation
								JOINT LThumb
								{
									OFFSET	0.0109	-0.0753	0.4387
									CHANNELS 3 Yrotation Xrotation Zrotation
									End Site
									{
										OFFSET -0.2090 -0.0868 0.2097
									}
								}
								JOINT LeftFingerBase
								{
									OFFSET	0.1071	-0.1567	0.2607
									CHANNELS 3 Yrotation Xrotation Zrotation
									JOINT LeftHandFinger1
									{
										OFFSET	0.1706	-0.2492	0.6830
										CHANNELS 3 Yrotation Xrotation Zrotation
										End Site
										{
											OFFSET 0.0335 -0.1507 0.2071
										}
									}
								}
							}
						}
					}
				}
				JOINT Neck
				{
					OFFSET	0.0000	1.7498	0.2381
					CHANNELS 3 Yrotation Xrotation Zrotation
					JOINT Neck1
					{
						OFFSET	0.0000	0.5043	0.1959
						CHANNELS 3 Yrotation Xrotation Zrotation
						JOINT Head
						{
							OFFSET	0.0000	0.5044	0.1959
							CHANNELS 3 Yrotation Xrotation Zrotation
							End Site
							{
								OFFSET 0.0000 1.4798 -0.0693
							}
						}
					}
				}
				JOINT RightShoulder
				{
					OFFSET	-0.2274	1.0382	0.4032
					CHANNELS 3 Yrotation Xrotation Zrotation
					JOINT RightArm
					{
						OFFSET	-1.4730	-0.2267	-0.0231
						CHANNELS 3 Yrotation Xrotation Zrotation
						JOINT RightForeArm
						{
							OFFSET	-1.6131	-1.8059	0.0081
							CHANNELS 3 Yrotation Xrotation Zrotation
							JOINT RightHand
							{
								OFFSET	-1.2197	-1.2423	1.6317
								CHANNELS 3 Yrotation Xrotation Zrotation
								JOINT RThumb
								{
									OFFSET	-0.0109	-0.0753	0.4387
									CHANNELS 3 Yrotation Xrotation Zrotation
									End Site
									{
										OFFSET 0.2090 -0.0868 0.2097
									}
								}
								JOINT RightFingerBase
								{
									OFFSET	-0.1071	-0.1567	0.2607
									CHANNELS 3 Yrotation Xrotation Zrotation
									JOINT RightHandFinger1
									{
										OFFSET	-0.1706	-0.2492	0.6830
										CHANNELS 3 Yrotation Xrotation Zrotation
										End Site
										{
											OFFSET -0.0335 -0.1507 0.2071
										}
									}
								}
							}
						}
					}
				}
			}
		}
	}
	JOINT RHipJoint
	{
		OFFSET	0.0000	0.0000	0.0000
		CHANNELS 3 Yrotation Xrotation Zrotation
		JOINT RightUpLeg
		{
			OFFSET	-1.0138	-0.0809	-0.0827
			CHANNELS 3 Yrotation Xrotation Zrotation
			JOINT RightLeg
			{
				OFFSET	-0.4110	-3.9095	0.3245
				CHANNELS 3 Yrotation Xrotation Zrotation
				JOINT RightFoot
				{
					OFFSET	-0.3810	-4.0555	-0.1470
					CHANNELS 3 Yrotation Xrotation Zrotation
					JOINT RightToeBase
					{
						OFFSET	-0.1396	-0.4462	1.3079
						CHANNELS 3 Yrotation Xrotation Zrotation
						End Site
						{
							OFFSET -0.0161 -0.0248 0.1809
						}
					}
				}
			}
		}
	}
}
MOTION
Frames: 14
Frame Time: 0.0333333
0.0173 7.8233 -0.0669 -4.5270 9.2558 -8.4643 0.0000 -0.0000 0.0000 -6.0555 -55.2380 7.7660 173.7612 45.9081 166.0993 1.1738 6.7553 4.1888 0.0000 0.0950 -0.0000 0.0000 -0.0000 0.0000 0.8596 5.3295 3.0707 2.0487 10.5499 8.5413 -9.8637 -1.7863 -4.8637 11.3424 28.9446 -21.2500 -30.1189 -28.3022 6.0787 -4.1376 9.2660 8.0347 18.2239 -8.5842 24.2282 -72.8899 31.7092 -76.7880 -43.1601 19.6602 -35.2561 1.3904 -10.3607 -4.1796 0.3329 -2.9162 -0.7869 2.8882 -17.8995 1.5610 11.7799 -5.3912 -0.8357 24.4813 -1.1770 0.0051 30.0124 -28.2229 -6.0266 -16.6182 -22.1746 -7.1029 -28.1145 -4.0890 -19.4056 47.6181 36.4702 50.1469 35.2297 17.1951 28.0374 0.0000 -0.0000 0.0000 -5.6276 -17.8333 23.2350 -3.0021 40.3888 -5.6442 5.0993 -30.1982 -11.9550 -0.0000 -3.1226 0.0000 
0.0274 8.0106 -0.0988 -6.4403 11.7153 -6.9719 0.0000 -0.0000 0.0000 -10.3518 -68.6006 12.0386 -178.9618 56.2096 172.1339 1.4228 6.3483 4.6335 -0.0000 -0.5177 -0.0000 0.0000 -0.0000 0.0000 2.4412 3.6239 1.8057 5.1425 7.0664 5.2616 -6.4613 -1.9107 -1.8246 7.0242 33.6241 -19.7473 -27.4089 -26.2207 4.7936 2.1664 3.9021 2.7900 18.2239 -8.5841 24.2282 -60.2921 35.6651 -64.9190 -36.5493 17.6815 -29.2341 0.2596 -4.9778 -3.1355 -0.3461 -2.2097 -0.7824 0.3279 -22.5774 2.4226 16.5327 -5.7382 -2.5150 28.0752 -14.5359 -1.1460 21.6061 -21.3171 -2.3523 -18.1020 -19.6216 -6.8885 -26.9789 -4.7547 -17.7612 49.9141 35.1139 51.4824 34.8917 17.0654 27.7312 0.0000 -0.0000 0.0000 -7.6102 -5.9463 18.7606 2.7920 29.5654 -2.8361 7.0780 -27.8506 -10.2168 -0.0000 -5.4201 0.0000 
0.0586 8.1830 -0.0897 -8.0005 13.6345 -4.6360 0.0000 -0.0000 0.0000 -7.0935 -73.4637 8.4744 177.9775 73.6082 170.0676 1.5015 3.6283 5.4411 -0.0000 -0.2599 0.0000 0.0000 -0.0000 0.0000 4.7693 2.3719 0.2002 9.5283 4.6796 0.9127 -4.8787 -1.9720 1.0224 6.2947 39.4699 -14.3351 -30.2468 -28.3971 6.1414 10.5202 3.1027 -4.4813 18.2239 -8.5841 24.2282 -48.2596 37.1098 -53.3912 -31.9080 15.8282 -25.0353 -0.9633 -1.9060 -2.0149 -1.4134 -0.7843 -0.5745 -4.0728 -24.8574 4.5172 18.7676 -5.3786 -4.7687 26.5845 -24.6806 -1.9018 18.4226 -18.3760 -1.2137 -20.8113 -11.0074 -1.5938 -25.7170 -5.5724 -15.9286 51.6207 32.4293 51.2415 34.3988 16.8726 27.2851 0.0000 -0.0000 0.0000 -13.0851 5.0768 11.6711 5.4947 17.6677 -1.5223 12.2430 -15.7635 -8.7912 -0.1940 -18.8801 2.2643 
0.0999 8.2844 -0.0496 -7.5947 15.7330 -1.9615 0.0000 -0.0000 0.0000 -0.8526 -73.9265 -0.1503 35.4410 85.3871 28.4485 1.1750 0.1123 5.4678 -0.0000 0.2689 0.0000 0.0000 -0.0000 0.0000 6.9257 1.3624 -1.4084 13.4593 2.9873 -3.2418 -5.8651 -1.9802 1.8091 12.0907 44.2430 -4.0274 -37.7346 -33.4486 10.1086 19.9204 4.6273 -9.6949 18.2239 -8.5841 24.2282 -38.2058 36.7686 -43.5802 -28.9055 14.4095 -22.3358 -2.1662 -1.2677 -1.0752 -2.6521 -0.3670 -0.5071 -8.9872 -23.6422 6.4702 19.3624 -4.8685 -6.9789 21.2379 -28.9517 -1.2352 20.7413 -20.5353 -2.0282 -20.7493 -4.4816 0.3256 -24.4976 -6.3982 -14.1567 51.5380 29.3371 48.6306 33.9848 16.7071 26.9105 0.0000 -0.0000 0.0000 -17.3434 8.1684 5.3362 6.2305 16.4067 -0.4498 12.6136 -2.4262 0.7794 -0.8221 -17.0520 11.0802 
0.1171 8.3498 -0.0138 -5.1563 17.2954 -0.0404 0.0000 -0.0000 0.0000 1.8844 -71.3671 -6.7297 5.2881 63.1723 0.1751 2.0942 -3.2229 3.9545 -0.0000 0.8425 0.0000 0.0000 -0.0000 0.0000 8.1922 0.7409 -2.4709 15.6356 1.9419 -5.4370 -5.8634 -1.8860 0.3199 17.8866 44.0608 6.2768 -45.1157 -37.5025 14.4978 27.7760 5.1049 -11.2978 18.2239 -8.5842 24.2282 -30.9344 35.6423 -36.3142 -27.2663 13.5581 -20.8687 -2.9601 -0.5186 -1.0246 -3.6479 0.3653 -0.7360 -13.2819 -23.7661 8.0092 16.2411 -4.6034 -7.5339 18.5633 -31.3411 -1.2636 24.5559 -23.8854 -3.5375 -17.0540 -1.3912 -3.2517 -23.4780 -7.0712 -12.6851 49.0285 29.4620 45.8850 33.9312 16.6854 26.8621 0.0000 -0.0000 0.0000 -14.8193 7.2333 4.4746 -0.3370 25.1537 -3.0573 4.9719 0.5729 10.0453 0.0000 2.1787 -0.0000 
0.0867 8.3728 -0.0313 -2.2330 16.8787 0.2110 0.0000 -0.0000 0.0000 4.4423 -62.1038 -11.5717 1.2091 36.5706 -1.2103 0.4859 -2.2215 1.6567 0.0000 0.4416 0.0000 0.0000 -0.0000 0.0000 8.4080 1.0042 -2.4671 15.8234 2.3110 -4.6455 -5.3829 -1.8010 -0.7268 16.8730 39.8459 6.7537 -47.3722 -38.5727 15.9166 33.8572 3.5702 -9.1594 18.2239 -8.5841 24.2282 -26.6962 34.6348 -31.9227 -26.7758 13.2925 -20.4306 -3.1839 -0.7022 -1.5133 -4.1758 5.5309 -1.5917 -16.3409 -29.0122 10.3299 13.8886 -4.5549 -7.2632 16.8011 -31.6143 -1.5890 27.4826 -26.2791 -4.8274 -10.8833 -6.5554 -6.5476 -22.8066 -7.4183 -11.7458 48.4342 31.4416 46.9409 34.0340 16.7269 26.9550 0.0000 -0.0000 0.0000 -11.3826 6.0594 6.4993 -6.3893 39.3586 -8.7450 -1.7516 0.4346 5.4924 -0.0000 -0.1861 0.0000 
0.0465 8.2872 -0.0892 0.2605 14.2663 -0.6746 0.0000 -0.0000 0.0000 3.1216 -46.8615 -10.5737 -2.3349 10.5175 -2.5407 0.4430 3.4810 -1.1749 -0.0000 -5.7135 -0.0000 0.0000 -0.0000 0.0000 7.6792 2.2523 -1.5187 14.2857 4.5233 -1.9618 -6.6000 -1.7987 -0.5780 14.8040 35.1056 1.2271 -48.4831 -39.0721 16.6266 37.6982 1.2270 -6.0090 18.2239 -8.5841 24.2282 -25.5893 34.3415 -30.6023 -27.2671 13.5586 -20.8693 -2.7839 -6.8771 -1.7594 -4.4775 17.4979 -2.0277 -16.8493 -36.8338 11.4132 14.7210 -4.7886 -6.1994 14.4337 -28.6593 -1.5565 28.0334 -26.7122 -5.0821 -3.3717 -14.0097 -6.6347 -22.6344 -7.2723 -11.5726 46.2491 34.8554 47.4658 34.1522 16.7744 27.0620 0.0000 -0.0000 0.0000 -10.4182 5.2555 9.1234 -13.9036 57.5477 -16.4440 -6.4237 -1.0156 4.2927 -0.0000 -0.4603 0.0000 
0.0378 8.0762 -0.1432 2.9366 11.1683 -0.7620 0.0000 -0.0000 0.0000 4.8517 -39.3169 -12.5832 -2.1537 11.9949 -2.4287 -0.0636 10.6157 9.4252 0.0000 -9.3561 -0.0000 0.0000 -0.0000 0.0000 6.1389 3.7918 -0.7334 11.1609 7.5054 -0.2295 -6.6632 -1.6635 -3.5990 11.7750 28.1976 -1.0992 -47.3587 -38.5665 15.9081 37.6138 0.1538 -3.1971 18.2239 -8.5841 24.2282 -32.3581 36.2665 -37.4286 -29.9392 14.9182 -23.2634 -2.2959 -6.8882 -1.5607 -4.1066 8.2982 0.6893 -11.3310 -30.6049 4.5095 14.6909 -5.0970 -4.5817 15.7770 -23.8970 -1.9216 22.6784 -22.2685 -2.7692 6.6550 -22.5011 -3.4884 -22.9985 -6.6321 -12.2215 40.1372 37.6512 43.7619 34.2597 16.8173 27.1592 0.0000 -0.0000 0.0000 -12.0751 4.1150 9.2532 -35.3342 74.7603 -36.4330 -13.5739 -1.3469 6.2822 0.0000 1.8902 -0.0000 
0.0799 7.8297 -0.1676 6.3676 9.3858 0.8974 0.0000 -0.0000 0.0000 3.8556 -43.3290 -14.9334 0.6324 37.6506 -2.0083 -0.6179 -3.6331 13.2354 -0.0000 -1.9656 0.0000 0.0000 -0.0000 0.0000 4.1801 4.7080 -0.8240 7.1662 9.4296 -1.0682 -6.5030 -1.5237 -6.3879 5.8779 19.5601 -3.1088 -41.6004 -35.6808 12.3558 31.4204 -0.2176 0.6550 18.2239 -8.5841 24.2282 -33.9349 37.2566 -39.5034 -30.4269 15.1507 -23.7018 -2.2737 -6.6548 0.2132 -3.6945 1.8355 0.8902 -7.8712 -25.2316 1.3451 13.9384 -5.1759 -3.8420 17.5023 -15.3349 0.1331 17.3809 -17.3772 -0.8747 16.6489 -26.9815 -0.0645 -23.7389 -5.6409 -13.4084 33.3979 38.1684 38.1727 34.3164 16.8399 27.2105 0.0000 -0.0000 0.0000 -14.3134 0.1432 5.5801 -110.5793 79.9832 -108.4463 -17.8425 -4.1935 5.2267 -0.0000 -0.1109 0.0000 
0.1492 7.6399 -0.1799 9.5872 9.1941 3.4640 0.0000 -0.0000 0.0000 1.3016 -41.4362 -17.6081 4.2308 50.2625 0.9884 -2.9581 -18.2405 13.4761 -0.0000 -2.1573 0.0000 0.0000 -0.0000 0.0000 2.5069 4.7328 -1.5543 4.1115 9.5245 -3.0550 -9.0868 -1.6131 -10.8557 0.9190 9.8866 -1.7789 -33.9659 -31.0295 8.0427 22.6040 0.1887 5.0587 18.2239 -8.5841 24.2282 -39.5027 38.1335 -45.1334 -31.8702 15.8115 -25.0011 -2.1996 -5.7373 1.6037 -3.2701 -0.6413 0.1049 -6.9181 -22.6496 0.9461 10.4532 -5.7176 1.0513 19.6384 -2.6922 1.4491 16.9949 -17.0027 -0.7535 13.6487 -22.9619 -2.2526 -24.6778 -4.4462 -14.8224 33.3515 38.3333 38.2782 34.2684 16.8208 27.1670 0.0000 -0.0000 0.0000 -15.2094 -8.5901 0.6623 -150.1308 72.3211 -145.2659 -16.2331 -8.6201 1.9149 0.0000 -2.2450 -0.0000 
0.2066 7.6189 -0.1779 10.7205 10.0206 4.6922 0.0000 -0.0000 0.0000 -0.7178 -34.0630 -17.9279 4.7816 52.3344 2.1266 -4.9399 -28.6509 14.2923 -0.0000 -3.2349 0.0000 0.0000 -0.0000 0.0000 1.6064 4.0750 -1.6709 2.7996 8.2014 -3.5539 -11.7393 -1.9055 -13.4613 -5.5764 0.4303 -2.6418 -27.2002 -26.0549 4.6982 16.7620 2.9287 9.2476 18.2239 -8.5841 24.2282 -48.9553 38.2006 -54.1041 -34.1336 16.7669 -27.0451 -1.8356 -2.2207 1.2575 -2.9060 0.4810 -0.5229 -7.1523 -25.1985 2.0514 4.4911 -5.7462 7.2662 22.2225 12.1535 0.5285 22.9568 -22.5122 -2.8801 -10.1927 -12.8465 -7.3533 -25.6262 -3.1854 -16.1478 40.2250 37.5983 43.8073 34.2481 16.8127 27.1487 0.0000 -0.0000 0.0000 -13.8304 -21.8879 -1.8809 -158.4203 68.2664 -152.9692 -14.4976 -12.7238 -2.9604 -0.0000 -0.6894 0.0000 
0.2300 7.7348 -0.1725 9.3738 10.9505 3.4760 0.0000 -0.0000 0.0000 -0.4876 -22.5402 -15.4841 1.8797 46.4267 1.0603 -6.4079 -34.1479 14.9907 0.0000 -7.2503 -0.0000 0.0000 -0.0000 0.0000 0.9306 3.4125 -0.5954 1.7490 6.8343 -1.1663 -16.4204 -2.7504 -17.7691 -7.4152 -7.4356 -1.5855 -24.1929 -23.5777 3.3853 17.3656 6.8402 11.6788 18.2239 -8.5841 24.2282 -52.4161 37.6892 -57.4169 -35.0617 17.1310 -27.8853 -1.2077 0.7562 -0.6692 -2.0988 1.0755 -1.9293 -6.7827 -27.0854 3.2886 2.2752 -5.1879 5.1837 21.8556 22.1872 3.4472 29.7339 -28.0146 -5.8909 -18.5963 -8.6394 -7.7095 -27.0272 -1.4572 -17.4311 41.4943 36.8371 44.3754 34.2825 16.8264 27.1798 0.0000 -0.0000 0.0000 -10.6934 -35.9738 -0.3217 -152.8461 71.1770 -147.6352 -13.0126 -13.7478 -2.6892 -0.0000 -3.5902 -0.0000 
0.2106 8.0037 -0.1399 6.7770 11.3986 0.3319 0.0000 -0.0000 0.0000 2.2877 -11.1775 -10.8584 0.5359 39.6859 0.8874 -6.4014 -24.8942 13.8573 0.0000 -22.3262 0.0000 0.0000 -0.0000 0.0000 -0.2940 3.4082 1.3915 -0.4681 6.8260 3.3506 -18.2667 -3.0672 -17.7319 -7.6342 -13.7271 -4.1583 -23.7777 -23.2228 3.2133 18.1190 5.8339 12.1312 18.1740 -8.6063 24.1779 -56.4232 36.0807 -60.3391 -36.5711 17.6893 -29.2539 -0.4098 2.8654 -2.5145 -0.3655 1.3900 -6.0813 -5.5538 -29.3286 4.9813 5.0486 -5.1740 1.6928 16.0327 28.4945 4.4711 39.4037 -34.4426 -11.0639 -20.4445 -0.1770 -3.8636 -28.3662 0.2623 -18.8235 38.1329 36.7388 41.1475 34.4275 16.8839 27.3110 0.0000 -0.0000 0.0000 -7.7404 -45.5786 4.1939 -110.6505 80.6155 -104.7737 -12.4980 -13.7974 2.6666 0.0000 -11.1163 0.0000 
0.1731 8.2958 -0.0725 3.7897 11.9292 -3.2441 0.0000 -0.0000 0.0000 2.4588 -4.9774 -6.5266 5.6426 35.8376 3.4813 -6.6236 -4.4257 9.5928 10.1761 -55.8036 -29.4282 0.0000 -0.0000 0.0000 -1.8714 3.8199 3.3747 -3.2609 7.7824 7.7072 -17.1610 -2.6660 -14.4987 -6.8362 -15.8814 -7.3168 -28.0698 -26.7406 5.0990 15.5733 -1.8537 11.4234 18.0577 -8.6568 24.0542 -59.7202 33.3883 -61.5958 -37.8243 18.1218 -30.3922 0.1580 3.4837 -2.0815 2.8665 -2.9900 -14.3311 -4.1221 -26.7602 8.2130 7.8988 -5.2136 -0.2144 10.3754 33.1005 2.9945 47.8237 -38.7778 -16.2043 -17.1871 0.9636 -2.6388 -27.9909 0.8247 -20.1685 37.7156 36.4305 40.4954 34.5545 16.9340 27.4260 0.0000 -0.0000 0.0000 -6.1901 -49.0325 9.1511 -20.4430 71.6891 -14.8371 -11.9034 -14.2102 -0.8888 0.0000 -1.3749 -0.0000 
